{
  "accessors": [
    {
      "bufferView": 2,
      "componentType": 5126,
      "count": 405,
      "max": [2.4048640727996826, 3.3769640922546387, -1.2765909433364868],
      "min": [-6.431750774383545, -15.076237678527832, -2.374530076980591],
      "type": "VEC3"
    },
    {
      "bufferView": 2,
      "byteOffset": 4860,
      "componentType": 5126,
      "count": 405,
      "max": [0.9936400651931763, 0.995323121547699, 1.0],
      "min": [-0.9936400651931763, -0.995323121547699, -0.9951865673065186],
      "type": "VEC3"
    },
    {
      "bufferView": 1,
      "componentType": 5126,
      "count": 405,
      "max": [0.858797013759613, 0.995684027671814],
      "min": [0.125, 0.027768999338150024],
      "type": "VEC2"
    },
    {
      "bufferView": 0,
      "componentType": 5125,
      "count": 1638,
      "type": "SCALAR"
    },
    {
      "bufferView": 2,
      "byteOffset": 9720,
      "componentType": 5126,
      "count": 695,
      "max": [2.4048640727996826, 3.3769640922546387, -1.2765909433364868],
      "min": [-6.56243896484375, -15.076237678527832, -1.8944300413131714],
      "type": "VEC3"
    },
    {
      "bufferView": 2,
      "byteOffset": 18060,
      "componentType": 5126,
      "count": 695,
      "max": [1.0, 0.995323121547699, 0.9955999851226807],
      "min": [-0.9928382039070129, -0.995323121547699, -0.9951865673065186],
      "type": "VEC3"
    },
    {
      "bufferView": 1,
      "byteOffset": 3240,
      "componentType": 5126,
      "count": 695,
      "max": [0.875, 1.0],
      "min": [0.125, 0.0],
      "type": "VEC2"
    },
    {
      "bufferView": 0,
      "byteOffset": 6552,
      "componentType": 5125,
      "count": 2556,
      "type": "SCALAR"
    },
    {
      "bufferView": 2,
      "byteOffset": 26400,
      "componentType": 5126,
      "count": 472,
      "max": [-4.962078094482422, -2.7153189182281494, 2.041393995285034],
      "min": [-6.123199939727783, -8.453224182128906, 0.992887020111084],
      "type": "VEC3"
    },
    {
      "bufferView": 2,
      "byteOffset": 32064,
      "componentType": 5126,
      "count": 472,
      "max": [0.9706462621688843, 0.9999779462814331, 0.8556877970695496],
      "min": [-0.9691702127456665, -0.9999779462814331, -0.9659881591796875],
      "type": "VEC3"
    },
    {
      "bufferView": 1,
      "byteOffset": 8800,
      "componentType": 5126,
      "count": 472,
      "max": [0.0, 0.0],
      "min": [0.0, 0.0],
      "type": "VEC2"
    },
    {
      "bufferView": 0,
      "byteOffset": 16776,
      "componentType": 5125,
      "count": 864,
      "type": "SCALAR"
    },
    {
      "bufferView": 2,
      "byteOffset": 37728,
      "componentType": 5126,
      "count": 472,
      "max": [-4.962078094482422, -3.524383068084717, 2.041393995285034],
      "min": [-6.123199939727783, -9.262288093566895, 0.992887020111084],
      "type": "VEC3"
    },
    {
      "bufferView": 2,
      "byteOffset": 43392,
      "componentType": 5126,
      "count": 472,
      "max": [0.9706462621688843, 0.9999779462814331, 0.8556877970695496],
      "min": [-0.9691702127456665, -0.9999779462814331, -0.9659881591796875],
      "type": "VEC3"
    },
    {
      "bufferView": 1,
      "byteOffset": 12576,
      "componentType": 5126,
      "count": 472,
      "max": [0.0, 0.0],
      "min": [0.0, 0.0],
      "type": "VEC2"
    },
    {
      "bufferView": 0,
      "byteOffset": 20232,
      "componentType": 5125,
      "count": 864,
      "type": "SCALAR"
    },
    {
      "bufferView": 2,
      "byteOffset": 49056,
      "componentType": 5126,
      "count": 118,
      "max": [1.855389952659607, 2.8884270191192627, -1.305156946182251],
      "min": [-5.882277011871338, -14.587700843811035, -1.305156946182251],
      "type": "VEC3"
    },
    {
      "bufferView": 2,
      "byteOffset": 50472,
      "componentType": 5126,
      "count": 118,
      "max": [0.08770404011011124, 0.08770404011011124, 1.0],
      "min": [-0.08770404011011124, -0.112604521214962, 0.9936399459838867],
      "type": "VEC3"
    },
    {
      "bufferView": 1,
      "byteOffset": 16352,
      "componentType": 5126,
      "count": 118,
      "max": [0.625436007976532, 0.9829909801483154],
      "min": [0.374563992023468, 0.7644780278205872],
      "type": "VEC2"
    },
    {
      "bufferView": 0,
      "byteOffset": 23688,
      "componentType": 5125,
      "count": 534,
      "type": "SCALAR"
    },
    {
      "bufferView": 2,
      "byteOffset": 51888,
      "componentType": 5126,
      "count": 14,
      "max": [-4.7913899421691895, -3.2264389991760254, 1.2644799947738647],
      "min": [-4.807837009429932, -4.542230129241943, -1.0380289554595947],
      "type": "VEC3"
    },
    {
      "bufferView": 2,
      "byteOffset": 52056,
      "componentType": 5126,
      "count": 14,
      "max": [-1.0, -0.0, 0.0],
      "min": [-1.0, -0.0, 0.0],
      "type": "VEC3"
    },
    {
      "bufferView": 1,
      "byteOffset": 17296,
      "componentType": 5126,
      "count": 14,
      "max": [0.6000000238418579, 0.675000011920929],
      "min": [0.4000000059604645, 0.32499998807907104],
      "type": "VEC2"
    },
    {
      "bufferView": 0,
      "byteOffset": 25824,
      "componentType": 5125,
      "count": 18,
      "type": "SCALAR"
    },
    {
      "bufferView": 2,
      "byteOffset": 52224,
      "componentType": 5126,
      "count": 30,
      "max": [-4.7913899421691895, -3.2264389991760254, 1.2644799947738647],
      "min": [-4.807837009429932, -4.542230129241943, -1.0380289554595947],
      "type": "VEC3"
    },
    {
      "bufferView": 2,
      "byteOffset": 52584,
      "componentType": 5126,
      "count": 30,
      "max": [-0.9950372576713562, 0.09950372576713562, 0.09950372576713562],
      "min": [-0.9950372576713562, -0.09950372576713562, -0.09950372576713562],
      "type": "VEC3"
    },
    {
      "bufferView": 1,
      "byteOffset": 17408,
      "componentType": 5126,
      "count": 30,
      "max": [0.6000000238418579, 0.675000011920929],
      "min": [0.4000000059604645, 0.32499998807907104],
      "type": "VEC2"
    },
    {
      "bufferView": 0,
      "byteOffset": 25896,
      "componentType": 5125,
      "count": 48,
      "type": "SCALAR"
    },
    {
      "bufferView": 2,
      "byteOffset": 52944,
      "componentType": 5126,
      "count": 194,
      "max": [1.5819499492645264, -2.6992030143737793, 1.6346609592437744],
      "min": [-4.996982097625732, -9.2781343460083, -1.0380289554595947],
      "type": "VEC3"
    },
    {
      "bufferView": 2,
      "byteOffset": 55272,
      "componentType": 5126,
      "count": 194,
      "max": [1.0, 1.0, 1.0],
      "min": [-1.0, -1.0, -1.0],
      "type": "VEC3"
    },
    {
      "bufferView": 1,
      "byteOffset": 17648,
      "componentType": 5126,
      "count": 194,
      "max": [0.6875, 0.6625000238418579],
      "min": [0.3125, 0.2853569984436035],
      "type": "VEC2"
    },
    {
      "bufferView": 0,
      "byteOffset": 26088,
      "componentType": 5125,
      "count": 387,
      "type": "SCALAR"
    },
    {
      "bufferView": 2,
      "byteOffset": 57600,
      "componentType": 5126,
      "count": 81,
      "max": [1.8615549802780151, -2.41959810256958, 2.975119113922119],
      "min": [-5.276587009429932, -9.5577392578125, 2.2514359951019287],
      "type": "VEC3"
    },
    {
      "bufferView": 2,
      "byteOffset": 58572,
      "componentType": 5126,
      "count": 81,
      "max": [1.0, 1.0, 1.0],
      "min": [-1.0, -1.0, -1.0],
      "type": "VEC3"
    },
    {
      "bufferView": 1,
      "byteOffset": 19200,
      "componentType": 5126,
      "count": 81,
      "max": [1.0890729427337646, 1.0425000190734863],
      "min": [-0.042500000447034836, -0.042500000447034836],
      "type": "VEC2"
    },
    {
      "bufferView": 0,
      "byteOffset": 27636,
      "componentType": 5125,
      "count": 189,
      "type": "SCALAR"
    },
    {
      "bufferView": 2,
      "byteOffset": 59544,
      "componentType": 5126,
      "count": 55,
      "max": [1.7464230060577393, -2.53472900390625, -1.0380289554595947],
      "min": [-5.161455154418945, -9.442607879638672, -1.366976022720337],
      "type": "VEC3"
    },
    {
      "bufferView": 2,
      "byteOffset": 60204,
      "componentType": 5126,
      "count": 55,
      "max": [1.0, 1.0, 1.0],
      "min": [-1.0, -1.0, -1.0],
      "type": "VEC3"
    },
    {
      "bufferView": 1,
      "byteOffset": 19848,
      "componentType": 5126,
      "count": 55,
      "max": [1.024999976158142, 1.024999976158142],
      "min": [-0.02500000037252903, -0.02500000037252903],
      "type": "VEC2"
    },
    {
      "bufferView": 0,
      "byteOffset": 28392,
      "componentType": 5125,
      "count": 141,
      "type": "SCALAR"
    },
    {
      "bufferView": 2,
      "byteOffset": 60864,
      "componentType": 5126,
      "count": 125,
      "max": [1.5819499492645264, -2.699202060699463, 2.2514359951019287],
      "min": [-4.996982097625732, -9.2781343460083, -1.0380289554595947],
      "type": "VEC3"
    },
    {
      "bufferView": 2,
      "byteOffset": 62364,
      "componentType": 5126,
      "count": 125,
      "max": [1.0, 1.0, 0.0],
      "min": [-1.0, -1.0, 0.0],
      "type": "VEC3"
    },
    {
      "bufferView": 1,
      "byteOffset": 20288,
      "componentType": 5126,
      "count": 125,
      "max": [1.0, 0.75],
      "min": [0.0, 0.20000000298023224],
      "type": "VEC2"
    },
    {
      "bufferView": 0,
      "byteOffset": 28956,
      "componentType": 5125,
      "count": 279,
      "type": "SCALAR"
    },
    {
      "bufferView": 2,
      "byteOffset": 63864,
      "componentType": 5126,
      "count": 24,
      "max": [1.4997140169143677, -2.7814390659332275, 1.470188021659851],
      "min": [-4.914744853973389, -9.195898056030273, -0.2567810118198395],
      "type": "VEC3"
    },
    {
      "bufferView": 2,
      "byteOffset": 64152,
      "componentType": 5126,
      "count": 24,
      "max": [1.0, 1.0, 0.0],
      "min": [-1.0, -1.0, 0.0],
      "type": "VEC3"
    },
    {
      "bufferView": 1,
      "byteOffset": 21288,
      "componentType": 5126,
      "count": 24,
      "max": [0.6625000238418579, 0.6312500238418579],
      "min": [0.3375000059604645, 0.3687500059604645],
      "type": "VEC2"
    },
    {
      "bufferView": 0,
      "byteOffset": 30072,
      "componentType": 5125,
      "count": 36,
      "type": "SCALAR"
    }
  ],
  "asset": {
    "extras": {
      "author": "aniljaco (https://sketchfab.com/aniljaco)",
      "license": "CC-BY-4.0 (http://creativecommons.org/licenses/by/4.0/)",
      "source": "https://sketchfab.com/3d-models/online-store-anil-37325ea8995b4b5e81ac1b0b86d4ee32",
      "title": "Online Store - Anil"
    },
    "generator": "Sketchfab-12.66.0",
    "version": "2.0"
  },
  "bufferViews": [
    {
      "buffer": 0,
      "byteLength": 30216,
      "name": "floatBufferViews",
      "target": 34963
    },
    {
      "buffer": 0,
      "byteLength": 21480,
      "byteOffset": 30216,
      "byteStride": 8,
      "name": "floatBufferViews",
      "target": 34962
    },
    {
      "buffer": 0,
      "byteLength": 64440,
      "byteOffset": 51696,
      "byteStride": 12,
      "name": "floatBufferViews",
      "target": 34962
    }
  ],
  "buffers": [
    {
      "byteLength": 116136,
      "uri": "scene.bin"
    }
  ],
  "materials": [
    {
      "doubleSided": true,
      "name": "Body",
      "pbrMetallicRoughness": {
        "baseColorFactor": [
          0.013265231862387882, 0.049807751290529466, 0.3359776551280267, 1.0
        ],
        "metallicFactor": 0.0,
        "roughnessFactor": 0.6
      }
    },
    {
      "doubleSided": true,
      "name": "Chrome",
      "pbrMetallicRoughness": {
        "baseColorFactor": [
          0.24438479139619812, 0.5651788496422854, 0.7415665502715867, 1.0
        ],
        "metallicFactor": 0.0,
        "roughnessFactor": 0.6
      }
    },
    {
      "doubleSided": true,
      "name": "Material.001",
      "pbrMetallicRoughness": {
        "baseColorFactor": [
          0.004205042788505907, 0.33261626830014124, 0.8658214927543891, 1.0
        ],
        "metallicFactor": 0.0,
        "roughnessFactor": 0.6
      }
    },
    {
      "doubleSided": true,
      "name": "Material.002",
      "pbrMetallicRoughness": {
        "baseColorFactor": [
          0.4445313770487772, 0.8422913224713429, 0.9516838809704441, 1.0
        ],
        "metallicFactor": 0.0,
        "roughnessFactor": 0.6
      }
    },
    {
      "doubleSided": true,
      "name": "Screen",
      "pbrMetallicRoughness": {
        "baseColorFactor": [
          0.4576787223087906, 0.748283328852045, 0.8111942547320499, 1.0
        ],
        "metallicFactor": 0.0,
        "roughnessFactor": 0.6
      }
    },
    {
      "doubleSided": true,
      "name": "mat_door",
      "pbrMetallicRoughness": {
        "baseColorFactor": [
          0.23036025841802138, 0.6132826966320255, 0.9419093091368909, 1.0
        ],
        "metallicFactor": 0.0,
        "roughnessFactor": 0.6
      }
    },
    {
      "doubleSided": true,
      "name": "mat_door_panes",
      "pbrMetallicRoughness": {
        "baseColorFactor": [
          0.20534820358265254, 0.004284061507367596, 0.004284061507367596, 1.0
        ],
        "metallicFactor": 0.0,
        "roughnessFactor": 0.6
      }
    },
    {
      "doubleSided": true,
      "name": "mat_frame",
      "pbrMetallicRoughness": {
        "baseColorFactor": [
          0.20507873639031693, 0.004391442037410293, 0.004391442037410293, 1.0
        ],
        "metallicFactor": 0.0,
        "roughnessFactor": 0.6
      }
    },
    {
      "doubleSided": true,
      "name": "mat_roof",
      "pbrMetallicRoughness": {
        "baseColorFactor": [
          0.037731508392848806, 0.09631699758855278, 0.8565725732128722, 1.0
        ],
        "metallicFactor": 0.0,
        "roughnessFactor": 0.6
      }
    },
    {
      "doubleSided": true,
      "name": "mat_slabs",
      "pbrMetallicRoughness": {
        "baseColorFactor": [0.02992126160061849, 0.2413553624430353, 1.0, 1.0],
        "metallicFactor": 0.0,
        "roughnessFactor": 0.6
      }
    },
    {
      "doubleSided": true,
      "name": "mat_walls",
      "pbrMetallicRoughness": {
        "baseColorFactor": [
          0.43266543604540303, 0.7221297050803428, 0.8291727436689289, 1.0
        ],
        "metallicFactor": 0.0,
        "roughnessFactor": 0.6
      }
    },
    {
      "doubleSided": true,
      "name": "mat_window",
      "pbrMetallicRoughness": {
        "baseColorFactor": [
          0.2371338973451285, 0.46121139740489336, 0.6131062062026862, 1.0
        ],
        "metallicFactor": 0.0,
        "roughnessFactor": 0.6
      }
    }
  ],
  "meshes": [
    {
      "name": "Object_0",
      "primitives": [
        {
          "attributes": {
            "NORMAL": 1,
            "POSITION": 0,
            "TEXCOORD_0": 2
          },
          "indices": 3,
          "material": 0,
          "mode": 4
        }
      ]
    },
    {
      "name": "Object_1",
      "primitives": [
        {
          "attributes": {
            "NORMAL": 5,
            "POSITION": 4,
            "TEXCOORD_0": 6
          },
          "indices": 7,
          "material": 1,
          "mode": 4
        }
      ]
    },
    {
      "name": "Object_2",
      "primitives": [
        {
          "attributes": {
            "NORMAL": 9,
            "POSITION": 8,
            "TEXCOORD_0": 10
          },
          "indices": 11,
          "material": 2,
          "mode": 4
        }
      ]
    },
    {
      "name": "Object_3",
      "primitives": [
        {
          "attributes": {
            "NORMAL": 13,
            "POSITION": 12,
            "TEXCOORD_0": 14
          },
          "indices": 15,
          "material": 3,
          "mode": 4
        }
      ]
    },
    {
      "name": "Object_4",
      "primitives": [
        {
          "attributes": {
            "NORMAL": 17,
            "POSITION": 16,
            "TEXCOORD_0": 18
          },
          "indices": 19,
          "material": 4,
          "mode": 4
        }
      ]
    },
    {
      "name": "Object_5",
      "primitives": [
        {
          "attributes": {
            "NORMAL": 21,
            "POSITION": 20,
            "TEXCOORD_0": 22
          },
          "indices": 23,
          "material": 5,
          "mode": 4
        }
      ]
    },
    {
      "name": "Object_6",
      "primitives": [
        {
          "attributes": {
            "NORMAL": 25,
            "POSITION": 24,
            "TEXCOORD_0": 26
          },
          "indices": 27,
          "material": 6,
          "mode": 4
        }
      ]
    },
    {
      "name": "Object_7",
      "primitives": [
        {
          "attributes": {
            "NORMAL": 29,
            "POSITION": 28,
            "TEXCOORD_0": 30
          },
          "indices": 31,
          "material": 7,
          "mode": 4
        }
      ]
    },
    {
      "name": "Object_8",
      "primitives": [
        {
          "attributes": {
            "NORMAL": 33,
            "POSITION": 32,
            "TEXCOORD_0": 34
          },
          "indices": 35,
          "material": 8,
          "mode": 4
        }
      ]
    },
    {
      "name": "Object_9",
      "primitives": [
        {
          "attributes": {
            "NORMAL": 37,
            "POSITION": 36,
            "TEXCOORD_0": 38
          },
          "indices": 39,
          "material": 9,
          "mode": 4
        }
      ]
    },
    {
      "name": "Object_10",
      "primitives": [
        {
          "attributes": {
            "NORMAL": 41,
            "POSITION": 40,
            "TEXCOORD_0": 42
          },
          "indices": 43,
          "material": 10,
          "mode": 4
        }
      ]
    },
    {
      "name": "Object_11",
      "primitives": [
        {
          "attributes": {
            "NORMAL": 45,
            "POSITION": 44,
            "TEXCOORD_0": 46
          },
          "indices": 47,
          "material": 11,
          "mode": 4
        }
      ]
    }
  ],
  "nodes": [
    {
      "children": [1],
      "matrix": [
        0.7354156970977783, 0.0, 0.0, 0.0, 0.0, 1.6329508791774268e-16,
        -0.7354156970977783, 0.0, 0.0, 0.7354156970977783,
        1.6329508791774268e-16, 0.0, 0.0, 0.0, 0.0, 1.0
      ],
      "name": "Sketchfab_model"
    },
    {
      "children": [2, 3, 4, 5, 6, 7, 8, 9, 10, 11, 12, 13],
      "name": "12c7d79aa6d54bcead77e5891d1ae415.obj.cleaner.materialmerger.gles"
    },
    {
      "mesh": 0,
      "name": "Object_2"
    },
    {
      "mesh": 1,
      "name": "Object_3"
    },
    {
      "mesh": 2,
      "name": "Object_4"
    },
    {
      "mesh": 3,
      "name": "Object_5"
    },
    {
      "mesh": 4,
      "name": "Object_6"
    },
    {
      "mesh": 5,
      "name": "Object_7"
    },
    {
      "mesh": 6,
      "name": "Object_8"
    },
    {
      "mesh": 7,
      "name": "Object_9"
    },
    {
      "mesh": 8,
      "name": "Object_10"
    },
    {
      "mesh": 9,
      "name": "Object_11"
    },
    {
      "mesh": 10,
      "name": "Object_12"
    },
    {
      "mesh": 11,
      "name": "Object_13"
    }
  ],
  "scene": 0,
  "scenes": [
    {
      "name": "Sketchfab_Scene",
      "nodes": [0]
    }
  ]
}
